<svg width="50" height="50" viewBox="0 0 50 50" fill="none" xmlns="http://www.w3.org/2000/svg">
<g id="uil:refresh">
<path id="Vector" d="M41.4791 32.3125H32.0416C31.4891 32.3125 30.9592 32.532 30.5685 32.9227C30.1778 33.3134 29.9583 33.8433 29.9583 34.3958C29.9583 34.9484 30.1778 35.4783 30.5685 35.869C30.9592 36.2597 31.4891 36.4792 32.0416 36.4792H37.0416C34.7436 38.8807 31.78 40.5402 28.5315 41.2446C25.2831 41.9489 21.8983 41.6658 18.812 40.4318C15.7257 39.1977 13.0789 37.069 11.2116 34.3191C9.34436 31.5693 8.34199 28.3239 8.33329 25C8.33329 24.4475 8.1138 23.9176 7.7231 23.5269C7.3324 23.1362 6.80249 22.9167 6.24996 22.9167C5.69742 22.9167 5.16752 23.1362 4.77682 23.5269C4.38612 23.9176 4.16663 24.4475 4.16663 25C4.17764 29.0683 5.37959 33.0444 7.62413 36.4376C9.86868 39.8307 13.0576 42.4924 16.7973 44.0942C20.5371 45.696 24.664 46.1678 28.6687 45.4513C32.6735 44.7349 36.3809 42.8615 39.3333 40.0625V43.75C39.3333 44.3025 39.5528 44.8324 39.9435 45.2231C40.3342 45.6138 40.8641 45.8333 41.4166 45.8333C41.9691 45.8333 42.4991 45.6138 42.8898 45.2231C43.2805 44.8324 43.4999 44.3025 43.4999 43.75V34.375C43.4948 33.8367 43.2815 33.3214 42.9048 32.9369C42.5281 32.5524 42.0172 32.3286 41.4791 32.3125ZM31.25 25C31.25 23.7639 30.8834 22.5555 30.1966 21.5277C29.5099 20.4999 28.5338 19.6988 27.3917 19.2258C26.2497 18.7527 24.993 18.6289 23.7806 18.8701C22.5683 19.1112 21.4546 19.7065 20.5805 20.5806C19.7065 21.4547 19.1112 22.5683 18.87 23.7807C18.6289 24.9931 18.7527 26.2497 19.2257 27.3918C19.6988 28.5338 20.4998 29.5099 21.5276 30.1967C22.5554 30.8834 23.7638 31.25 25 31.25C26.6576 31.25 28.2473 30.5915 29.4194 29.4194C30.5915 28.2473 31.25 26.6576 31.25 25ZM22.9166 25C22.9166 24.588 23.0388 24.1852 23.2677 23.8426C23.4966 23.5 23.822 23.2329 24.2027 23.0753C24.5834 22.9176 25.0023 22.8763 25.4064 22.9567C25.8105 23.0371 26.1817 23.2355 26.4731 23.5269C26.7645 23.8182 26.9629 24.1894 27.0433 24.5936C27.1236 24.9977 27.0824 25.4166 26.9247 25.7973C26.767 26.1779 26.5 26.5033 26.1574 26.7322C25.8148 26.9611 25.412 27.0833 25 27.0833C24.4474 27.0833 23.9175 26.8638 23.5268 26.4731C23.1361 26.0824 22.9166 25.5525 22.9166 25ZM25 4.16667C19.6591 4.18191 14.5281 6.24774 10.6666 9.9375V6.25C10.6666 5.69747 10.4471 5.16757 10.0564 4.77687C9.66573 4.38617 9.13583 4.16667 8.58329 4.16667C8.03076 4.16667 7.50085 4.38617 7.11015 4.77687C6.71945 5.16757 6.49996 5.69747 6.49996 6.25V15.625C6.49996 16.1775 6.71945 16.7074 7.11015 17.0981C7.50085 17.4888 8.03076 17.7083 8.58329 17.7083H17.9583C18.5108 17.7083 19.0407 17.4888 19.4314 17.0981C19.8221 16.7074 20.0416 16.1775 20.0416 15.625C20.0416 15.0725 19.8221 14.5426 19.4314 14.1519C19.0407 13.7612 18.5108 13.5417 17.9583 13.5417H12.9583C15.2551 11.1414 18.2168 9.4823 21.4633 8.77731C24.7098 8.07233 28.0928 8.35364 31.1783 9.58513C34.2638 10.8166 36.9108 12.9421 38.7796 15.6888C40.6484 18.4354 41.6538 21.6779 41.6666 25C41.6666 25.5525 41.8861 26.0824 42.2768 26.4731C42.6675 26.8638 43.1974 27.0833 43.75 27.0833C44.3025 27.0833 44.8324 26.8638 45.2231 26.4731C45.6138 26.0824 45.8333 25.5525 45.8333 25C45.8333 22.2641 45.2944 19.555 44.2474 17.0274C43.2005 14.4998 41.6659 12.2032 39.7313 10.2686C37.7968 8.33406 35.5001 6.79949 32.9725 5.75251C30.4449 4.70554 27.7358 4.16667 25 4.16667Z" fill="#111111"/>
</g>
</svg>
