<svg width="50" height="50" viewBox="0 0 50 50" fill="none" xmlns="http://www.w3.org/2000/svg">
<g id="ic:round-flash-off">
<path id="Vector" d="M33.5834 23.9583C33.7691 23.6431 33.868 23.2843 33.8701 22.9184C33.8723 22.5525 33.7776 22.1926 33.5956 21.8752C33.4136 21.5578 33.1509 21.2942 32.834 21.1112C32.5172 20.9282 32.1576 20.8324 31.7917 20.8333H27.8959L32.6459 25.5833L33.5834 23.9583ZM33.9167 7.18751C34.6042 5.79167 33.6042 4.16667 32.0417 4.16667H16.6667C15.5209 4.16667 14.5834 5.10417 14.5834 6.25001V7.52084L27.3542 20.2917L33.9167 7.18751ZM38.4167 37.25L8.58335 7.41667C8.39047 7.22379 8.16149 7.07079 7.90948 6.96641C7.65747 6.86202 7.38737 6.8083 7.1146 6.8083C6.84183 6.8083 6.57173 6.86202 6.31972 6.96641C6.06771 7.07079 5.83873 7.22379 5.64585 7.41667C5.45297 7.60955 5.29997 7.83853 5.19559 8.09054C5.0912 8.34255 5.03748 8.61265 5.03748 8.88542C5.03748 9.15819 5.0912 9.42829 5.19559 9.6803C5.29997 9.93231 5.45297 10.1613 5.64585 10.3542L14.5834 19.3125V25C14.5834 26.1458 15.5209 27.0833 16.6667 27.0833H20.8334V41.9792C20.8334 43.0417 22.2292 43.4167 22.7709 42.5L28.2917 33.0208L35.4584 40.1875C36.2709 41 37.5834 41 38.3959 40.1875C39.2292 39.375 39.2292 38.0625 38.4167 37.25Z" fill="black"/>
</g>
</svg>
