<svg width="30" height="30" viewBox="0 0 30 30" fill="none" xmlns="http://www.w3.org/2000/svg">
<g id="fluent:list-28-regular">
<path id="Vector" d="M3.21423 7.23213C3.21423 7.01901 3.2989 6.81462 3.44959 6.66392C3.60029 6.51322 3.80468 6.42856 4.0178 6.42856H23.8392C24.0524 6.42856 24.2567 6.51322 24.4074 6.66392C24.5581 6.81462 24.6428 7.01901 24.6428 7.23213C24.6428 7.44525 24.5581 7.64964 24.4074 7.80034C24.2567 7.95104 24.0524 8.0357 23.8392 8.0357H4.0178C3.80468 8.0357 3.60029 7.95104 3.44959 7.80034C3.2989 7.64964 3.21423 7.44525 3.21423 7.23213ZM3.21423 22.2321C3.21423 22.019 3.2989 21.8146 3.44959 21.6639C3.60029 21.5132 3.80468 21.4286 4.0178 21.4286H21.6964C21.9095 21.4286 22.1139 21.5132 22.2646 21.6639C22.4153 21.8146 22.4999 22.019 22.4999 22.2321C22.4999 22.4452 22.4153 22.6496 22.2646 22.8003C22.1139 22.951 21.9095 23.0357 21.6964 23.0357H4.0178C3.80468 23.0357 3.60029 22.951 3.44959 22.8003C3.2989 22.6496 3.21423 22.4452 3.21423 22.2321ZM4.0178 13.9286C3.80468 13.9286 3.60029 14.0132 3.44959 14.1639C3.2989 14.3146 3.21423 14.519 3.21423 14.7321C3.21423 14.9452 3.2989 15.1496 3.44959 15.3003C3.60029 15.451 3.80468 15.5357 4.0178 15.5357H25.9821C26.1952 15.5357 26.3996 15.451 26.5503 15.3003C26.701 15.1496 26.7857 14.9452 26.7857 14.7321C26.7857 14.519 26.701 14.3146 26.5503 14.1639C26.3996 14.0132 26.1952 13.9286 25.9821 13.9286H4.0178Z" fill="#111111"/>
</g>
</svg>
